<svg xmlns="http://www.w3.org/2000/svg" viewBox="0 0 16.32 22.45"><defs><style>.cls-1{fill:#565352;}.cls-2{fill:#787575;}.cls-3{fill:#464343;}</style></defs><g id="Layer_2" data-name="Layer 2"><g id="style2"><path class="cls-1" d="M5.34,18.52l-.06,0a8.08,8.08,0,0,1-3.47-7c0-3.25,2.73-6.28,4.47-7.89A2.14,2.14,0,0,1,6,2.46a2.21,2.21,0,0,1,4.22-.91l.08.17-.14.12c-.67.58-2.82,3-2.87,9.82H9.31c0-1,.22-4.89,1.52-6.85L11,4.54l.22.24c1.5,1.61,3.3,4.09,3.3,6.72a8.08,8.08,0,0,1-3.47,7l-.06,0Z"/><path d="M8.16.5A1.93,1.93,0,0,1,9.94,1.65C9.21,2.29,7,4.82,7,11.91H9.56s0-4.77,1.48-7C12.62,6.64,14.27,9,14.27,11.5a7.87,7.87,0,0,1-3.35,6.77H5.4A7.87,7.87,0,0,1,2.06,11.5c0-3.22,2.74-6.22,4.55-7.85A2,2,0,0,1,8.16.5m0-.5A2.46,2.46,0,0,0,6,3.56C3.88,5.5,1.56,8.38,1.56,11.5a8.35,8.35,0,0,0,3.59,7.21l.12.06h5.79l.11-.06a8.35,8.35,0,0,0,3.6-7.21c0-2.18-1.14-4.5-3.37-6.9L11,4.14l-.35.53c-1.25,1.88-1.5,5.43-1.55,6.74H7.49C7.59,4.88,9.64,2.58,10.27,2l.28-.25-.15-.34A2.48,2.48,0,0,0,8.16,0Z"/><path class="cls-2" d="M8.44.54a2.7,2.7,0,0,0-.28,0,2,2,0,0,0-2,2,1.85,1.85,0,0,0,.07.48A2.76,2.76,0,0,1,8.44.54Z"/><path class="cls-2" d="M7,3.88c-.36-.1-.43-.23-.43-.23C4.8,5.28,2.06,8.28,2.06,11.5a9.66,9.66,0,0,0,.27,2.26C3.81,5.83,7.41,4,7,3.88Z"/><path class="cls-3" d="M9.94,1.65A2,2,0,0,0,9.05.73a6,6,0,0,1,0,.88C9.1,3,6,5.7,6,9.11a3.47,3.47,0,0,0,1,2.8C7,4.82,9.21,2.29,9.94,1.65Z"/><path class="cls-3" d="M13.42,10.55c0,6.05-6.86,7.18-6.86,7.18v.54h4.37a7.87,7.87,0,0,0,3.35-6.77,8,8,0,0,0-1.39-4.18A12.76,12.76,0,0,1,13.42,10.55Z"/><path class="cls-1" d="M.28,22.15l0-.23c0-.11-.19-2.74,1.21-3.49s6.47-.73,6.69-.73,5.39,0,6.7.73,1.21,3.38,1.2,3.49l0,.23-7.88.05Z"/><path d="M8.16,18s5.31,0,6.58.7,1.07,3.25,1.07,3.25L8.16,22,.51,21.9s-.19-2.57,1.08-3.25S8.16,18,8.16,18m0-.5h0c-.56,0-5.47.05-6.81.76C-.16,19,0,21.64,0,21.94l0,.46H.51l7.65.05,7.65-.05h.46l0-.46c0-.3.18-2.92-1.34-3.73-1.34-.71-6.25-.76-6.8-.76Z"/><path class="cls-2" d="M14.74,18.65C13.47,18,8.16,18,8.16,18s-5.31,0-6.57.7a1.72,1.72,0,0,0-.73.86,28.3,28.3,0,0,1,7.3-.63,28.34,28.34,0,0,1,7.31.63A1.72,1.72,0,0,0,14.74,18.65Z"/></g></g></svg>