<svg xmlns="http://www.w3.org/2000/svg" viewBox="0 0 21.6 22.56"><defs><style>.cls-1{fill:#f7f8f8;}.cls-2{fill:#d3d3d3;}</style></defs><g id="Layer_2" data-name="Layer 2"><g id="style2"><path class="cls-1" d="M5.78,20.05l0-.17A12.31,12.31,0,0,0,2.56,15.1,5.5,5.5,0,0,1,.25,10.53s.14-5,5-5a8.26,8.26,0,0,1,3.55.81l.53-1.86H7.57V1.72H9.43V.25h2.74V1.72H14V4.46H12.25l.52,1.86a8.35,8.35,0,0,1,3.56-.81c4.88,0,5,5,5,5A5.49,5.49,0,0,1,19,15.1a12.36,12.36,0,0,0-3.16,4.78l0,.17-5,.26ZM15.19,9.51a2.78,2.78,0,0,0-2.15.81.24.24,0,0,0-.06.17v3.67a.27.27,0,0,0,.27.27h.9a.28.28,0,0,0,.19-.07c1.76-1.55,2.48-2.51,2.48-3.32C16.82,10.38,16.65,9.51,15.19,9.51Zm-8.78,0C5,9.51,4.78,10.38,4.78,11c0,.81.72,1.77,2.48,3.32a.26.26,0,0,0,.19.07h.89a.27.27,0,0,0,.27-.27V10.49a.24.24,0,0,0-.06-.17A2.77,2.77,0,0,0,6.41,9.51Z"/><path d="M11.92.5V2h1.86V4.21H11.92l.7,2.47a7.92,7.92,0,0,1,3.71-.92c4.22,0,4.77,4,4.77,4.77a5.25,5.25,0,0,1-2.23,4.38,12.52,12.52,0,0,0-3.24,4.9l-4.83.25L6,19.81a12.43,12.43,0,0,0-3.23-4.9A5.25,5.25,0,0,1,.5,10.53c0-.76.54-4.77,4.77-4.77A7.92,7.92,0,0,1,9,6.68l.7-2.47H7.82V2H9.68V.5h2.24m1.33,14.18h.9a.56.56,0,0,0,.35-.13c1.83-1.61,2.57-2.6,2.57-3.51,0-.54-.08-1.78-1.88-1.78a3,3,0,0,0-2.33.89.48.48,0,0,0-.13.34v3.67a.52.52,0,0,0,.52.52m-5.8,0h.89a.52.52,0,0,0,.52-.52V10.49a.52.52,0,0,0-.12-.34,3,3,0,0,0-2.33-.89c-1.8,0-1.88,1.24-1.88,1.78,0,.91.73,1.9,2.57,3.51a.54.54,0,0,0,.35.13M12.42,0H9.18V1.47H7.32V4.71H9L8.66,6a8.66,8.66,0,0,0-3.39-.71C1,5.26,0,9.17,0,10.53a5.74,5.74,0,0,0,2.4,4.76A12,12,0,0,1,5.49,20l.11.33h.34l4.83.26h.05l4.84-.26H16l.11-.33a12.09,12.09,0,0,1,3.08-4.67,5.73,5.73,0,0,0,2.41-4.76c0-1.36-1-5.27-5.27-5.27a8.77,8.77,0,0,0-3.4.71l-.35-1.26h1.7V1.47H12.42V0Zm.83,14.18,0,0V10.49a2.54,2.54,0,0,1,2-.73c1.21,0,1.38.62,1.38,1.28s-.7,1.63-2.4,3.13Zm-5.8,0h0C5.72,12.67,5,11.77,5,11s.16-1.28,1.38-1.28a2.56,2.56,0,0,1,2,.73v3.67l-.91,0Z"/><polygon class="cls-2" points="13.4 2.35 13.4 3.84 11.55 3.84 11.92 4.21 13.78 4.21 13.78 1.97 13.4 2.35"/><polygon class="cls-2" points="8.19 3.84 7.82 4.21 9.68 4.21 10.04 3.84 8.19 3.84"/><polygon class="cls-2" points="11.54 2.35 11.54 0.82 11.92 0.5 11.92 1.97 11.54 2.35"/><path class="cls-2" d="M19,6.48a5,5,0,0,1,1.5,3.9c0,1.53-.4,2.44-3.4,5s-2.77,3.07-2.77,3.07l.23,1.37,1.1-.05a12.52,12.52,0,0,1,3.24-4.9A5.16,5.16,0,0,0,19,6.48Z"/><path class="cls-1" d="M2.92,22.26l0-.23c0-.11-.19-2.74,1.2-3.48s6.48-.74,6.7-.74,5.38,0,6.69.74S18.7,21.92,18.7,22l0,.23-7.88,0Z"/><path d="M10.8,18.06s5.31,0,6.58.71S18.45,22,18.45,22l-7.65,0L3.15,22S3,19.44,4.22,18.77s6.58-.71,6.58-.71m0-.5h0c-.56,0-5.47.05-6.81.77-1.52.8-1.36,3.43-1.34,3.72l0,.46h.46l7.65,0,7.65,0h.46l0-.46c0-.29.17-2.92-1.34-3.72-1.34-.72-6.25-.77-6.81-.77Z"/></g></g></svg>