<svg xmlns="http://www.w3.org/2000/svg" viewBox="0 0 18.71 22.45"><defs><style>.cls-1{fill:#f7f8f8;}.cls-2{fill:#d3d3d3;}</style></defs><g id="Layer_2" data-name="Layer 2"><g id="style2"><path class="cls-1" d="M11,20.86a4,4,0,0,1-.53,0L4.73,18.92l0-.16c0-.1-.29-2.54,3.54-5.4a3.54,3.54,0,0,0,1.7-2.5,2,2,0,0,0-.44-1.27A5.34,5.34,0,0,1,5.21,12c-.12.13-.25.3-.38.47-.45.58-1,1.24-1.56,1.24s-3-.63-3-2A4.08,4.08,0,0,1,1.47,9.53,9.87,9.87,0,0,0,3,7.16a9.22,9.22,0,0,0,.4-1.27c.24-1,.4-1.61,2.32-3.2,0-.17,0-.37.08-.57.1-.83.22-1.87,1-1.87h.06L7,.28A12.79,12.79,0,0,1,9.17,2.53a9.4,9.4,0,0,1,8.4,9.9C17.57,20.25,12.57,20.86,11,20.86Z"/><path d="M6.86.5h0A14.13,14.13,0,0,1,9,2.77a9.13,9.13,0,0,1,8.28,9.66c0,7.55-4.73,8.18-6.28,8.18a3.3,3.3,0,0,1-.49,0L5,18.73s-.31-2.37,3.44-5.17c3.28-2.49,1.08-4.38,1.08-4.38A5.23,5.23,0,0,1,5.1,11.79c-.5.5-1.14,1.71-1.83,1.71S.5,12.89.5,11.72s2-2.51,2.77-4.46S3.34,5,6,2.83C6.16,2,6.11.5,6.86.5m0-.5c-1,0-1.17,1.21-1.27,2.1,0,.16,0,.32-.06.46C3.7,4.09,3.47,4.74,3.2,5.83a10.32,10.32,0,0,1-.39,1.24,9.6,9.6,0,0,1-1.53,2.3A4.14,4.14,0,0,0,0,11.72C0,13.3,2.37,14,3.27,14,4,14,4.55,13.29,5,12.67l.3-.38A5.57,5.57,0,0,0,9.51,10a1.73,1.73,0,0,1,.19.83,3.38,3.38,0,0,1-1.6,2.3c-3.94,2.94-3.65,5.52-3.64,5.63l0,.31.3.1,5.59,1.86h.09a5.24,5.24,0,0,0,.56,0c1.59,0,6.78-.63,6.78-8.68,0-8.55-7.15-9.95-8.52-10.13A11.63,11.63,0,0,0,7.11.06L7,0H6.86Z"/><path class="cls-2" d="M5.1,11.79a4.88,4.88,0,0,0,1.31-.18c-.47-.5-1.1-1-1.63-.77-.68.3-1,1.67-1.05,2.49A12.2,12.2,0,0,0,5.1,11.79Z"/><path class="cls-2" d="M10.63,7A4.69,4.69,0,0,1,9.48,9.18a2.29,2.29,0,0,1,.71,1.87A6.33,6.33,0,0,0,10.63,7Z"/><path class="cls-2" d="M12.23,3.7c3,1.89,4.28,7.22,2,9.69C11.63,16.3,12,18.26,12,18.26l2.52,1.31c1.5-1,2.85-3.1,2.85-7.14C17.32,7.21,14.57,4.8,12.23,3.7Z"/><path d="M5.71,6.64S6,4.94,7.05,4.94,8,6.33,7,6.33,5.71,6.64,5.71,6.64Z"/><path class="cls-1" d="M2.67,22.15l0-.23c0-.11-.2-2.74,1.2-3.49s6.48-.73,6.7-.74,5.38,0,6.69.74,1.21,3.38,1.2,3.49v.23l-7.88,0Z"/><path d="M10.55,18s5.3,0,6.57.7S18.2,21.9,18.2,21.9L10.55,22,2.9,21.9S2.7,19.33,4,18.65s6.58-.7,6.58-.7m0-.5h0c-.55,0-5.47.05-6.81.76C2.22,19,2.38,21.64,2.4,21.94l0,.46H2.9l7.64.05,7.66-.05h.46l0-.46c0-.3.18-2.92-1.33-3.73-1.34-.71-6.25-.76-6.81-.76Z"/></g></g></svg>