<svg xmlns="http://www.w3.org/2000/svg" viewBox="0 0 16.04 22.45"><defs><style>.cls-1{fill:#f7f8f8;}.cls-2{fill:#d3d3d3;}</style></defs><g id="Layer_2" data-name="Layer 2"><g id="style2"><path class="cls-1" d="M.32,22.19l0-.21s-.46-3.37,2.42-4.72c2-.94,2.91-3.65,3.18-5.3H3.81l-.55-1.54L6.11,8.54a4.37,4.37,0,1,1,3.82,0l2.85,1.88L12.23,12H10.15c.27,1.65,1.19,4.36,3.18,5.3C16.21,18.61,15.76,22,15.75,22l0,.21Z"/><path d="M8,.5a4.12,4.12,0,0,1,1.39,8l3.07,2-.42,1.19H9.87c.16,1.3,1,4.65,3.36,5.77C16,18.77,15.5,22,15.5,22H.54s-.46-3.18,2.27-4.47C5.21,16.36,6,13,6.17,11.71H4l-.42-1.19,3.07-2A4.12,4.12,0,0,1,8,.5M8,0a4.62,4.62,0,0,0-2.4,8.56L3.29,10.1,3,10.32l.13.37.42,1.18.12.34h2c-.31,1.61-1.2,4-3,4.82A4.8,4.8,0,0,0,0,22l.06.43H15.94L16,22a4.8,4.8,0,0,0-2.56-5c-1.79-.84-2.68-3.21-3-4.82h2l.12-.34L13,10.69l.13-.37-.33-.22L10.42,8.56A4.62,4.62,0,0,0,8,0Z"/><path class="cls-2" d="M12.06,11.71h-3s1.59-.14,1.59-1.24a1.94,1.94,0,0,0-.62-1.56l2.43,1.61Z"/><path class="cls-2" d="M10.59,1.42A4.1,4.1,0,0,1,4.82,7.19a4.11,4.11,0,1,0,5.77-5.77Z"/><path class="cls-2" d="M13.23,17.48C10.83,16.36,10,13,9.87,11.71H6.17a7,7,0,0,1-.15.82c.84,1.08,4.45,5.5,7.81,5.31A4.33,4.33,0,0,0,13.23,17.48Z"/></g></g></svg>