<svg xmlns="http://www.w3.org/2000/svg" viewBox="0 0 21.97 22.45"><defs><style>.cls-1{fill:#f7f8f8;}.cls-2{fill:#d3d3d3;}</style></defs><g id="Layer_2" data-name="Layer 2"><g id="style2"><path class="cls-1" d="M6.65,20.29,2.06,9.19a2.09,2.09,0,1,1,2-1L6.68,11l.17-6.23A2.34,2.34,0,1,1,10,2.59a2.32,2.32,0,0,1-.94,1.87L11,9.73l1.93-5.27A2.31,2.31,0,0,1,12,2.59a2.35,2.35,0,1,1,3.16,2.19L15.28,11l2.59-2.8a2,2,0,0,1-.31-1.08,2.08,2.08,0,1,1,2.35,2.06l-4.59,11.1Z"/><path d="M14.31.5a2.09,2.09,0,0,1,.55,4.1l.19,7,3.14-3.39a1.8,1.8,0,0,1-.38-1.11A1.83,1.83,0,1,1,19.74,9L15.15,20H6.82L2.23,9A1.83,1.83,0,1,1,4.16,7.13a1.86,1.86,0,0,1-.38,1.11l3.14,3.39.18-7a2.08,2.08,0,1,1,1.66-.23L11,10.46l2.23-6.09A2.09,2.09,0,0,1,14.31.5m0-.5a2.6,2.6,0,0,0-2.6,2.59,2.54,2.54,0,0,0,.9,2L11,9,9.36,4.54A2.59,2.59,0,1,0,5.07,2.59,2.61,2.61,0,0,0,6.6,5l-.15,5.44-2-2.21a2.39,2.39,0,0,0,.25-1A2.33,2.33,0,1,0,1.88,9.41L6.35,20.23l.13.31h9l.13-.31L20.09,9.41a2.33,2.33,0,1,0-2.78-2.28,2.26,2.26,0,0,0,.25,1l-2,2.21L15.37,5A2.59,2.59,0,0,0,14.31,0Z"/><path class="cls-2" d="M21.2,6.19a2.64,2.64,0,0,1-1.84,2.27.61.61,0,0,0-.23.25C15,17.43,8.62,18.16,8.62,18.16L8,20h7.19L19.74,9A1.81,1.81,0,0,0,21.2,6.19Z"/><path class="cls-2" d="M3.78,8.24a1.86,1.86,0,0,0,.38-1.11A1.8,1.8,0,0,0,3.77,6,2.36,2.36,0,0,1,3.43,7.7a.55.55,0,0,0,.07.64c1.08,1.13,3.42,3.29,3.42,3.29Z"/><path class="cls-2" d="M8.76,4.37a2.11,2.11,0,0,0,1-1.78,2,2,0,0,0-.44-1.27,2.39,2.39,0,0,1-.88,2.29.56.56,0,0,0-.15.62L11,10.46Z"/><path class="cls-2" d="M16.4,2.59a2.05,2.05,0,0,0-.35-1.15,2.92,2.92,0,0,1-1.49,2.42.54.54,0,0,0-.32.54c.2,1.8.81,7.23.81,7.23l-.19-7A2.09,2.09,0,0,0,16.4,2.59Z"/><path class="cls-1" d="M3.1,22.15v-.23c0-.11-.2-2.74,1.2-3.49s6.47-.73,6.69-.74,5.39,0,6.7.74,1.21,3.38,1.2,3.49l0,.23-7.88,0Z"/><path d="M11,18s5.31,0,6.58.7,1.07,3.25,1.07,3.25L11,22,3.34,21.9s-.2-2.57,1.07-3.25S11,18,11,18m0-.5h0c-.56,0-5.47.05-6.81.76-1.51.81-1.36,3.43-1.33,3.73l0,.46h.46l7.65.05,7.65-.05h.47l0-.46c0-.3.18-2.92-1.33-3.73-1.34-.71-6.26-.76-6.81-.76Z"/></g></g></svg>