<svg xmlns="http://www.w3.org/2000/svg" viewBox="0 0 16.32 22.45"><defs><style>.cls-1{fill:#565352;}.cls-2{fill:#464343;}.cls-3{fill:#787575;}</style></defs><g id="Layer_2" data-name="Layer 2"><g id="style2"><polygon class="cls-1" points="2.04 19.92 3.25 7.2 8.16 4.91 13.07 7.2 14.28 19.92 2.04 19.92"/><path d="M8.16,5.19l4.68,2.17L14,19.67H2.32L3.49,7.36,8.16,5.19m0-.55L8,4.73,3.28,6.91,3,7l0,.29L1.82,19.62l-.05.55H14.56l-.06-.55L13.34,7.32l0-.29-.26-.12L8.37,4.73l-.21-.09Z"/><path class="cls-2" d="M12.7,6.6h-8v1S12,7.6,12,19.17H14Z"/><path class="cls-1" d="M.28,22.15l0-.23c0-.11-.19-2.74,1.21-3.49s6.47-.73,6.69-.73,5.39,0,6.7.73,1.21,3.38,1.2,3.49l0,.23-7.88.05Z"/><path d="M8.16,18s5.31,0,6.58.7,1.07,3.25,1.07,3.25L8.16,22,.51,21.9s-.19-2.57,1.08-3.25S8.16,18,8.16,18m0-.5h0c-.56,0-5.47.05-6.81.76C-.16,19,0,21.64,0,21.94l0,.46H.51l7.65.05,7.65-.05h.46l0-.46c0-.3.18-2.92-1.34-3.73-1.34-.71-6.25-.76-6.8-.76Z"/><path class="cls-3" d="M14.74,18.65C13.47,18,8.16,18,8.16,18s-5.31,0-6.57.7a1.72,1.72,0,0,0-.73.86,28.3,28.3,0,0,1,7.3-.63,28.34,28.34,0,0,1,7.31.63A1.72,1.72,0,0,0,14.74,18.65Z"/><path class="cls-1" d="M12.8,7.61a31,31,0,0,0-4.64-.43,30.63,30.63,0,0,0-4.63.43H3.47l-.07,0C1.12,6.8,1.2,3.7,1.25,2.22c0-.23,0-.42,0-.57V1.5l.13-.08A5.56,5.56,0,0,1,3.94.77a1.52,1.52,0,0,1,.27,0h.18L5,3.33l.91-.05L6.17.47,7.47.29a6,6,0,0,1,1.38,0l1.31.18.27,2.81.91.05L11.93.8h.18a1.52,1.52,0,0,1,.27,0,5.53,5.53,0,0,1,2.56.65l.14.08v.15c0,.14,0,.34,0,.57,0,1.48.13,4.58-2.16,5.38l-.06,0Z"/><path d="M8.16.5a4.87,4.87,0,0,1,.66,0L9.93.69l.28,2.83,1.33.07L12.13,1h.25a5.34,5.34,0,0,1,2.44.62c0,1.08.47,4.86-2,5.72a32,32,0,0,0-4.68-.43,31.75,31.75,0,0,0-4.67.43C1,6.5,1.54,2.72,1.5,1.64A5.34,5.34,0,0,1,3.94,1h.25l.59,2.56,1.34-.07L6.4.69,7.51.54a4.63,4.63,0,0,1,.65,0m0-.5a5.81,5.81,0,0,0-.72.05L6.33.19l-.39,0,0,.4L5.66,3l-.48,0L4.68.92,4.6.57l-.36,0a1.85,1.85,0,0,0-.3,0,5.75,5.75,0,0,0-2.68.68L1,1.35v.31C1,1.8,1,2,1,2.21,1,3.76.86,7,3.32,7.83l.12,0,.13,0a30.31,30.31,0,0,1,4.59-.43,30.14,30.14,0,0,1,4.59.43l.13,0,.12,0c2.46-.86,2.37-4.07,2.33-5.62,0-.22,0-.41,0-.55V1.35l-.27-.15A5.73,5.73,0,0,0,12.38.52a1.85,1.85,0,0,0-.3,0l-.35,0-.08.35-.5,2.15-.49,0L10.42.64l0-.4L10,.19,8.88.05a5.81,5.81,0,0,0-.72,0Z"/><path class="cls-2" d="M14.82,1.64a4.56,4.56,0,0,0-.61-.27C13.7,5.3,12.14,6.65,11,7.12c1.05.11,1.8.24,1.8.24C15.29,6.5,14.79,2.72,14.82,1.64Z"/><path class="cls-3" d="M2.64,6.86c0-.07-.87-4.1.21-5.71a5.44,5.44,0,0,0-1.35.49C1.53,2.57,1.17,5.52,2.64,6.86Z"/><path class="cls-3" d="M7.51.54,6.4.69,6.12,3.52A9.34,9.34,0,0,1,8,.51C7.81.52,7.66.52,7.51.54Z"/><path class="cls-3" d="M13.31,1.12A4.89,4.89,0,0,0,12.13,1l-.59,2.56A8,8,0,0,1,13.31,1.12Z"/></g></g></svg>