<svg xmlns="http://www.w3.org/2000/svg" viewBox="0 0 23.45 23.45"><defs><style>.cls-1{fill:#ed2424;}</style></defs><g id="Layer_2" data-name="Layer 2"><g id="style2"><path class="cls-1" d="M11.72,23A11.23,11.23,0,1,1,22.94,11.72,11.24,11.24,0,0,1,11.72,23Z"/><path d="M11.72,1A10.73,10.73,0,1,1,1,11.72,10.73,10.73,0,0,1,11.72,1m0-1A11.73,11.73,0,1,0,23.45,11.72,11.74,11.74,0,0,0,11.72,0Z"/><path d="M17.45,10.65,15.16,12.1l-.38-3L13,11.64l-1.26-2.8-1.25,2.8L8.66,9.08l-.38,3L6,10.65l1.73,3.44a1.26,1.26,0,0,0-.45,1c0,1.75,3.11,1.94,4.44,1.94s4.44-.19,4.44-1.94a1.29,1.29,0,0,0-.44-1ZM11.72,16c-1.9,0-3.44-.42-3.44-.94s1.54-.93,3.44-.93,3.44.41,3.44.93S13.62,16,11.72,16Z"/><circle cx="5.46" cy="9.27" r="0.77"/><path d="M8.28,7a.77.77,0,1,0,0,1.53A.77.77,0,1,0,8.28,7Z"/><path d="M18,8.5a.77.77,0,1,0,.77.77A.77.77,0,0,0,18,8.5Z"/><path d="M15.16,7a.77.77,0,1,0,0,1.53.77.77,0,1,0,0-1.53Z"/><path d="M11.72,6.45a.77.77,0,1,0,.77.77A.77.77,0,0,0,11.72,6.45Z"/></g></g></svg>