<svg xmlns="http://www.w3.org/2000/svg" viewBox="0 0 19 23.45"><defs><style>.cls-1{fill:#fff;}</style></defs><g id="Layer_2" data-name="Layer 2"><g id="Layer_1-2" data-name="Layer 1"><path class="cls-1" d="M2.75,23A2.21,2.21,0,0,1,1,22.15a2.24,2.24,0,0,1-.51-1.83,2.31,2.31,0,0,1,2.31-1.87h.53A7,7,0,0,1,1.83,14c0-2.91,2.85-6.18,4.77-8A3.48,3.48,0,0,1,9.5.5a4.3,4.3,0,0,1,.61.05A3.49,3.49,0,0,1,12.4,5.94c.49.48,1,1,1.4,1.46a.91.91,0,0,1,0,1.23L9.15,13.25a.5.5,0,1,0,.7.7l4.36-4.36a.9.9,0,0,1,.64-.26.88.88,0,0,1,.75.4A8,8,0,0,1,17.16,14a7,7,0,0,1-1.53,4.46h.53a2.31,2.31,0,0,1,2.31,1.87A2.24,2.24,0,0,1,18,22.15a2.21,2.21,0,0,1-1.71.8Z"/><path d="M9.5,1a3,3,0,0,1,2.93,2.35A3,3,0,0,1,11.73,6c.49.46,1.08,1,1.69,1.74a.4.4,0,0,1,0,.55L8.79,12.89a1,1,0,0,0,0,1.42,1,1,0,0,0,1.42,0l4.36-4.37a.43.43,0,0,1,.28-.11.39.39,0,0,1,.33.17,7.65,7.65,0,0,1,1.48,4,6.37,6.37,0,0,1-2.21,5h1.71A1.81,1.81,0,0,1,18,20.4a1.76,1.76,0,0,1-1.73,2.05H2.75A1.76,1.76,0,0,1,1,20.4,1.81,1.81,0,0,1,2.84,19H4.55a6.37,6.37,0,0,1-2.22-5c0-2.92,3.2-6.35,4.94-8A3,3,0,0,1,9.5,1m0-1h0a4,4,0,0,0-4,4A3.89,3.89,0,0,0,6,5.86C3.73,8.1,1.33,11.15,1.33,14a7.46,7.46,0,0,0,1.1,4A2.75,2.75,0,0,0,.65,22.48a2.78,2.78,0,0,0,2.1,1h13.5A2.76,2.76,0,0,0,19,20.24,2.8,2.8,0,0,0,16.57,18a7.46,7.46,0,0,0,1.09-4A8.5,8.5,0,0,0,16,9.46a1.37,1.37,0,0,0-1.17-.63,1.4,1.4,0,0,0-1,.39L14.11,9a1.41,1.41,0,0,0,.06-1.93q-.54-.6-1.14-1.2A4,4,0,0,0,9.5,0Z"/></g></g></svg>