<svg xmlns="http://www.w3.org/2000/svg" viewBox="0 0 23.91 23.45"><defs><style>.cls-1{fill:#fff;}</style></defs><g id="Layer_2" data-name="Layer 2"><g id="Layer_1-2" data-name="Layer 1"><path class="cls-1" d="M5.21,23a2.25,2.25,0,0,1-1-4.27A10,10,0,0,1,.5,11.2c0-4.1,3.11-5.93,6.19-5.93a5.3,5.3,0,0,1,2.49.54.42.42,0,0,0,.21.06.24.24,0,0,0,.18-.07l.73-.66H9.06a1,1,0,0,1-1-1V2.84a1,1,0,0,1,1-1h1.25V1.5a1,1,0,0,1,1-1h1.3a1,1,0,0,1,1,1v.34h1.25a1,1,0,0,1,1,1v1.3a1,1,0,0,1-1,1H13.61l.73.66a.24.24,0,0,0,.18.07.42.42,0,0,0,.21-.06,5.3,5.3,0,0,1,2.49-.54c3.08,0,6.19,1.83,6.19,5.93a9.93,9.93,0,0,1-3.71,7.48,2.25,2.25,0,0,1-1,4.27Z"/><path d="M12.61,1a.5.5,0,0,1,.5.5v.84h1.75a.5.5,0,0,1,.5.5v1.3a.51.51,0,0,1-.5.5H13.11v.71l.89.82a.76.76,0,0,0,.52.2A.92.92,0,0,0,15,6.25a4.87,4.87,0,0,1,2.25-.48c2.52,0,5.69,1.42,5.69,5.43,0,3.8-2.53,6.38-4.34,7.75h.14a1.75,1.75,0,0,1,0,3.5H5.21a1.75,1.75,0,0,1,0-3.5h.13C3.53,17.58,1,15,1,11.2c0-4,3.17-5.43,5.69-5.43a4.87,4.87,0,0,1,2.25.48.92.92,0,0,0,.45.12.74.74,0,0,0,.52-.2l.9-.82V4.64H9.06a.5.5,0,0,1-.5-.5V2.84a.5.5,0,0,1,.5-.5h1.75V1.5a.5.5,0,0,1,.5-.5h1.3m0-1h-1.3A1.5,1.5,0,0,0,9.82,1.34H9.06a1.5,1.5,0,0,0-1.5,1.5v1.3a1.51,1.51,0,0,0,.17.7,7,7,0,0,0-1-.07,7.32,7.32,0,0,0-4.4,1.42A6,6,0,0,0,0,11.2a10.36,10.36,0,0,0,3.41,7.41,2.76,2.76,0,0,0,1.8,4.84h13.5a2.75,2.75,0,0,0,1.79-4.84,10.32,10.32,0,0,0,3.41-7.41c0-4.42-3.47-6.43-6.69-6.43a7,7,0,0,0-1,.07,1.52,1.52,0,0,0,.18-.7V2.84a1.5,1.5,0,0,0-1.5-1.5H14.1A1.51,1.51,0,0,0,12.61,0Z"/></g></g></svg>