<svg xmlns="http://www.w3.org/2000/svg" viewBox="0 0 19.02 23.45"><defs><style>.cls-1{fill:#fff;}</style></defs><g id="Layer_2" data-name="Layer 2"><g id="Layer_1-2" data-name="Layer 1"><path class="cls-1" d="M2.77,23a2.25,2.25,0,0,1,0-4.5H3a15.32,15.32,0,0,1,3.43-4.88,6.48,6.48,0,0,0,2.23-2.85l-.61.4c-1.21.79-3,2-4.66,2a2.67,2.67,0,0,1-2.26-1.16C-.42,9.86,1.23,7.87,2.7,6.1,3.59,5,4.51,3.92,4.51,3c0-.19-.29-.51-.48-.73s-.52-.58-.49-.93A.61.61,0,0,1,3.78.89C3.92.77,4.25.5,9.17.5h.19c.87,0,8.44.25,8.44,8.83a27.47,27.47,0,0,1-1.17,9.15A2.25,2.25,0,0,1,16.27,23Z"/><path d="M9.36,1c1.21,0,7.94.36,7.94,8.32,0,5.58-.81,8.35-1.4,9.63h.37a1.75,1.75,0,0,1,0,3.5H2.77a1.75,1.75,0,0,1,0-3.5h.51a15.32,15.32,0,0,1,3.43-5c2-1.59,2.77-3.43,2.37-3.93A.12.12,0,0,0,9,10c-.58,0-3.4,2.59-5.64,2.59a2.17,2.17,0,0,1-1.85-.95C-.68,8.66,5,5.69,5,3c0-.73-1.25-1.45-.92-1.72S9.18,1,9.18,1h.18m0-1h-.2C4.07,0,3.74.27,3.46.5A1.17,1.17,0,0,0,3,1.3a1.76,1.76,0,0,0,.62,1.3A3.43,3.43,0,0,1,4,3.05c0,.74-.88,1.75-1.7,2.74C.89,7.5-1,9.84.69,12.24A3.18,3.18,0,0,0,3.35,13.6,7.56,7.56,0,0,0,7,12.35a6.65,6.65,0,0,1-.9.83A15.05,15.05,0,0,0,2.65,18a2.75,2.75,0,0,0,.12,5.5h13.5a2.75,2.75,0,0,0,1-5.31,29.86,29.86,0,0,0,1-8.82C18.3,2.44,13.48,0,9.36,0Z"/></g></g></svg>