<svg xmlns="http://www.w3.org/2000/svg" viewBox="0 0 19 23.45"><defs><style>.cls-1{fill:#fff;}</style></defs><g id="Layer_2" data-name="Layer 2"><g id="Layer_1-2" data-name="Layer 1"><path d="M2.75,22.94a2.25,2.25,0,0,1,0-4.5h.4c2.44-1.8,3.38-5.27,3.66-6.58a6,6,0,1,1,5.38,0c.28,1.31,1.22,4.78,3.65,6.58h.41a2.25,2.25,0,0,1,0,4.5Z"/><path class="cls-1" d="M9.5,1a5.5,5.5,0,0,1,2.13,10.57c.15.9,1.07,5.28,4,7.38h.57a1.75,1.75,0,0,1,0,3.5H2.75a1.75,1.75,0,0,1,0-3.5h.57c3-2.1,3.9-6.48,4.05-7.38A5.5,5.5,0,0,1,9.5,1m0-1A6.5,6.5,0,0,0,6.23,12.12C5.9,13.49,5,16.37,3,18H2.75a2.75,2.75,0,0,0,0,5.5h13.5a2.75,2.75,0,0,0,0-5.5H16c-2-1.58-2.91-4.46-3.24-5.83A6.5,6.5,0,0,0,9.5,0Z"/></g></g></svg>