<svg xmlns="http://www.w3.org/2000/svg" viewBox="0 0 23.5 23.45"><defs><style>.cls-1{fill:#fff;}</style></defs><g id="Layer_2" data-name="Layer 2"><g id="Layer_1-2" data-name="Layer 1"><path class="cls-1" d="M5.06,23a2.25,2.25,0,1,1,0-4.5h.28c-1-1.34-2.22-3.74-2.22-7.79a18.51,18.51,0,0,0-.26-3.2H2.8a2.3,2.3,0,1,1,2.3-2.3,1.62,1.62,0,0,1,0,.22A6.83,6.83,0,0,1,7,6.91c.16-.63.37-1.35.62-2.15a2.3,2.3,0,1,1,2.86-.39c.6.92,1.06,1.68,1.37,2.28.3-.59.75-1.33,1.32-2.21a2.27,2.27,0,0,1-.7-1.64A2.3,2.3,0,1,1,16,4.7c.26.83.47,1.56.63,2.21a6.66,6.66,0,0,1,1.76-1.47,2.64,2.64,0,0,1,0-.28,2.3,2.3,0,1,1,2.36,2.3,19.56,19.56,0,0,0-.26,3.2c0,4.06-1.17,6.45-2.22,7.79h.28a2.25,2.25,0,0,1,0,4.5Z"/><path d="M14.73,1a1.8,1.8,0,0,1,.69,3.46c.29.89.63,2,.85,3a.29.29,0,0,0,.29.23.28.28,0,0,0,.23-.11A6.36,6.36,0,0,1,19,5.7a1.91,1.91,0,0,1-.09-.54A1.8,1.8,0,1,1,20.7,7a2.09,2.09,0,0,1-.35,0A19.61,19.61,0,0,0,20,10.66c0,4.93-1.75,7.28-2.87,8.29h1.43a1.75,1.75,0,0,1,0,3.5H5.06a1.75,1.75,0,1,1,0-3.5H6.49c-1.12-1-2.87-3.36-2.87-8.29a18.89,18.89,0,0,0-.36-3.77A1.77,1.77,0,0,1,2.8,7a1.8,1.8,0,1,1,1.8-1.8,1.57,1.57,0,0,1-.08.49A6.25,6.25,0,0,1,6.83,7.54a.28.28,0,0,0,.23.11.29.29,0,0,0,.29-.23c.22-1,.55-2,.84-2.92a1.8,1.8,0,1,1,2.38-1.7,1.78,1.78,0,0,1-.78,1.48,25,25,0,0,1,1.75,3,.31.31,0,0,0,.27.17.29.29,0,0,0,.27-.17A25.86,25.86,0,0,1,13.8,4.33a1.78,1.78,0,0,1-.87-1.53A1.81,1.81,0,0,1,14.73,1m0-1A2.8,2.8,0,0,0,12.5,4.49c-.26.41-.49.79-.69,1.13-.21-.37-.46-.77-.75-1.22a2.74,2.74,0,0,0,.51-1.6A2.8,2.8,0,1,0,7,5c-.1.34-.2.66-.28,1A7.29,7.29,0,0,0,5.6,5.1,2.8,2.8,0,1,0,2.43,7.93a18.77,18.77,0,0,1,.19,2.73A13.61,13.61,0,0,0,4.43,18a2.75,2.75,0,0,0,.63,5.43h13.5A2.75,2.75,0,0,0,19.19,18,13.52,13.52,0,0,0,21,10.66a17.71,17.71,0,0,1,.2-2.75,2.8,2.8,0,1,0-3.3-2.75h0a6.51,6.51,0,0,0-1,.76q-.14-.5-.3-1A2.8,2.8,0,0,0,14.73,0Z"/></g></g></svg>