<svg xmlns="http://www.w3.org/2000/svg" viewBox="0 0 19 23.45"><defs><style>.cls-1{fill:#fff;}</style></defs><g id="Layer_2" data-name="Layer 2"><g id="Layer_1-2" data-name="Layer 1"><path d="M2.75,22.94a2.25,2.25,0,0,1,0-4.5H4V11.5H2.75A2.25,2.25,0,0,1,.5,9.25V2.75A2.25,2.25,0,0,1,2.75.5h.5A2.25,2.25,0,0,1,5.5,2.75v2H7v-2A2.25,2.25,0,0,1,9.25.5h.5A2.25,2.25,0,0,1,12,2.75v2h1.5v-2A2.25,2.25,0,0,1,15.75.5h.5A2.25,2.25,0,0,1,18.5,2.75v6.5a2.25,2.25,0,0,1-2.25,2.25H15v6.94h1.21a2.25,2.25,0,0,1,0,4.5Z"/><path class="cls-1" d="M16.25,1A1.75,1.75,0,0,1,18,2.75v6.5A1.75,1.75,0,0,1,16.25,11H14.54v8h1.71a1.75,1.75,0,0,1,0,3.5H2.75a1.75,1.75,0,0,1,0-3.5H4.46V11H2.75A1.75,1.75,0,0,1,1,9.25V2.75A1.75,1.75,0,0,1,2.75,1h.5A1.75,1.75,0,0,1,5,2.75V5.29H7.5V2.75A1.75,1.75,0,0,1,9.25,1h.5A1.75,1.75,0,0,1,11.5,2.75V5.29H14V2.75A1.75,1.75,0,0,1,15.75,1h.5m0-1h-.5A2.75,2.75,0,0,0,13,2.75V4.29h-.5V2.75A2.75,2.75,0,0,0,9.75,0h-.5A2.75,2.75,0,0,0,6.5,2.75V4.29H6V2.75A2.75,2.75,0,0,0,3.25,0h-.5A2.75,2.75,0,0,0,0,2.75v6.5A2.75,2.75,0,0,0,2.75,12h.71V18H2.75a2.75,2.75,0,0,0,0,5.5h13.5a2.75,2.75,0,0,0,0-5.5h-.71V12h.71A2.75,2.75,0,0,0,19,9.25V2.75A2.75,2.75,0,0,0,16.25,0Z"/></g></g></svg>